<?xml version="1.0" encoding="UTF-8" standalone="no"?>
<!-- Created with Inkscape (http://www.inkscape.org/) -->

<svg
   xmlns:dc="http://purl.org/dc/elements/1.1/"
   xmlns:cc="http://creativecommons.org/ns#"
   xmlns:rdf="http://www.w3.org/1999/02/22-rdf-syntax-ns#"
   xmlns:svg="http://www.w3.org/2000/svg"
   xmlns="http://www.w3.org/2000/svg"
   xmlns:sodipodi="http://sodipodi.sourceforge.net/DTD/sodipodi-0.dtd"
   xmlns:inkscape="http://www.inkscape.org/namespaces/inkscape"
   version="1.1"
   id="svg4684"
   width="1000"
   height="820"
   viewBox="0 0 1000 820"
   sodipodi:docname="icetetlogo.svg"
   inkscape:version="0.92.3 (2405546, 2018-03-11)">
  <metadata
     id="metadata4690">
    <rdf:RDF>
      <cc:Work
         rdf:about="">
        <dc:format>image/svg+xml</dc:format>
        <dc:type
           rdf:resource="http://purl.org/dc/dcmitype/StillImage" />
        <dc:title></dc:title>
      </cc:Work>
    </rdf:RDF>
  </metadata>
  <defs
     id="defs4688" />
  <sodipodi:namedview
     pagecolor="#ffffff"
     bordercolor="#ffffff"
     borderopacity="1"
     objecttolerance="10"
     gridtolerance="10"
     guidetolerance="10"
     inkscape:pageopacity="0"
     inkscape:pageshadow="2"
     inkscape:window-width="1366"
     inkscape:window-height="705"
     id="namedview4686"
     showgrid="false"
     inkscape:zoom="0.63658537"
     inkscape:cx="489.01748"
     inkscape:cy="410"
     inkscape:window-x="0"
     inkscape:window-y="30"
     inkscape:window-maximized="1"
     inkscape:current-layer="svg4684" />
  <path
     inkscape:connector-curvature="0"
     id="path4696"
     d="m 371.71839,576.25 c -0.32969,-0.61871 12.89076,-55.29354 18.86052,-78 l 1.64318,-6.25 h 6.38896 c 5.12688,0 6.38895,0.30876 6.38895,1.56302 0,0.85965 -1.54449,7.49715 -3.43219,14.75 C 390.98975,548.95543 388,560.86262 388,562.34905 388,563.87377 396.52051,564 499.44098,564 c 68.62678,0 111.66462,-0.36184 112.02307,-0.94183 0.53691,-0.86874 -27.28194,-113.81878 -29.41391,-119.4263 -0.51998,-1.36764 -9.74398,-12.89695 -20.49778,-25.62069 C 550.79856,405.28745 542,394.292 542,393.57687 c 0,-0.71513 1.37281,-4.32791 3.0507,-8.0284 8.73111,-19.25607 4.89098,-40.55225 -10.03252,-55.63714 -25.9258,-26.20619 -69.44388,-16.3176 -82.16096,18.6694 -3.084,8.48463 -3.07387,23.44995 0.0219,32.30299 1.22774,3.51105 1.99633,6.99855 1.70797,7.75 -0.54928,1.43139 -7.14852,1.85844 -11.34428,0.73411 -5.39674,-1.44616 -8.69316,-25.62009 -5.36829,-39.36783 4.99807,-20.66614 21.26096,-38.66757 41.31872,-45.73578 9.67191,-3.40831 25.13309,-4.2067 35.30679,-1.82319 17.9753,4.21129 34.35976,17.18666 42.37609,33.55897 7.7558,15.84022 9.05883,32.45583 3.77199,48.09877 -2.16521,6.4065 -2.32071,7.68202 -1.15702,9.49046 0.7394,1.14908 7.57915,9.47408 15.19944,18.5 7.62029,9.02592 15.27215,18.21077 17.00414,20.41077 2.88825,3.66872 4.56348,9.73468 20.22721,73.24232 9.39298,38.08327 17.07815,69.69577 17.07815,70.25 0,1.19032 -256.64767,1.44737 -257.28161,0.25768 z m 74.7871,-58.24111 c -0.33689,-0.54511 2.43376,-13.3907 6.15702,-28.54574 4.98343,-20.28448 6.5009,-27.98054 5.75135,-29.16883 -0.56001,-0.8878 -15.75496,-11.16012 -33.76654,-22.82739 -18.01159,-11.66726 -33.85633,-22.25411 -35.21054,-23.52632 -1.53438,-1.44148 -3.58538,-5.81944 -5.44283,-11.61804 -10.00939,-31.24725 -7.48397,-64.61794 7.04636,-93.11019 17.09182,-33.51502 47.03291,-56.36847 84.95969,-64.84808 10.76952,-2.40783 36.66914,-2.41149 47.79607,-0.007 23.56429,5.09269 43.12586,15.25857 60.11551,31.24122 18.80882,17.69398 32.25443,42.39869 36.61855,67.28222 2.67411,15.24739 1.55686,44.13314 -1.79184,46.32652 -0.68106,0.4461 -3.71329,0.6944 -6.73829,0.55179 l -5.5,-0.2593 0.2237,-3.5 c 1.88802,-29.54027 1.31806,-38.42442 -3.43074,-53.47634 -17.43877,-55.27444 -74.90407,-87.05837 -130.94746,-72.42675 -34.6777,9.05353 -63.21627,35.71173 -74.85095,69.9191 -7.23169,21.26207 -7.41206,47.69687 -0.46782,68.56431 l 2.03287,6.10879 37.51082,24.31667 c 20.63096,13.37416 37.74355,24.69322 38.02799,25.15345 0.28444,0.46024 -2.28138,11.90379 -5.70184,25.43013 -5.20405,20.57966 -5.98869,24.75293 -4.80779,25.57123 1.41955,0.98366 71.68734,0.39663 72.69125,-0.60729 0.27126,-0.27126 -4.2745,-19.27073 -10.1017,-42.22105 -7.82471,-30.81752 -10.31233,-42.06833 -9.51417,-43.03005 1.21765,-1.46717 9.58129,-1.74946 11.71906,-0.39553 1.59209,1.00832 25.51039,96.62523 24.69927,98.73896 C 553.1544,518.7612 543.72296,519 500.0904,519 c -33.91945,0 -53.19268,-0.35648 -53.58491,-0.99111 z"
     style="fill:#ffffff" />
</svg>
